/* XPM */
static char *r_circuits1[] = {
/* columns rows colors chars-per-pixel */
"32 32 173 2 ",
"   c #020101",
".  c #0C0A07",
"X  c #1E180F",
"o  c #13100B",
"O  c #1B1510",
"+  c #1C1814",
"@  c #211A12",
"#  c #2C2316",
"$  c #372E27",
"%  c #3C363C",
"&  c #5A3207",
"*  c #4E2A1A",
"=  c #503515",
"-  c #5A3B1B",
";  c #6B3C06",
":  c #61321B",
">  c #472E27",
",  c #47392C",
"<  c #4B3C29",
"1  c #493727",
"2  c #533E23",
"3  c #4A3B32",
"4  c #6A3E22",
"5  c #753B20",
"6  c #794609",
"7  c #55442C",
"8  c #5D4B2F",
"9  c #5B462C",
"0  c #584C3E",
"q  c #6D4F29",
"w  c #68502E",
"e  c #675336",
"r  c #745D3A",
"t  c #7B633E",
"y  c #77603C",
"u  c #4A4653",
"i  c #5C5958",
"p  c #6C5B43",
"a  c #6A5B48",
"s  c #78664B",
"d  c #796D5B",
"f  c #555366",
"g  c #5B596C",
"h  c #5C5B70",
"j  c #666169",
"k  c #606076",
"l  c #67667C",
"z  c #726D7B",
"x  c #854A04",
"c  c #975608",
"v  c #945D19",
"b  c #AE5F00",
"n  c #A25800",
"m  c #B86503",
"M  c #AC6514",
"N  c #B96E14",
"B  c #B9721B",
"V  c #854526",
"C  c #894928",
"Z  c #9A4E2A",
"A  c #954F2B",
"S  c #97512D",
"D  c #9B502C",
"F  c #814E33",
"G  c #845637",
"H  c #A05630",
"J  c #A45B34",
"K  c #8F6127",
"L  c #8D683F",
"P  c #93703D",
"I  c #BD7822",
"U  c #AC7A3B",
"Y  c #AE7934",
"T  c #B47D34",
"R  c #C26A03",
"E  c #CA730A",
"W  c #D47402",
"Q  c #DD7802",
"!  c #D87A09",
"~  c #E97F00",
"^  c #E67F05",
"/  c #836943",
"(  c #8A6F46",
")  c #9E6E43",
"_  c #8D714A",
"`  c #8B7047",
"'  c #92764A",
"]  c #95784C",
"[  c #9C7749",
"{  c #806D55",
"}  c #8A7250",
"|  c #9A7E54",
" . c #A77547",
".. c #B47C4B",
"X. c #DA8216",
"o. c #EA8103",
"O. c #E9850D",
"+. c #F38300",
"@. c #EC8B16",
"#. c #F6941B",
"$. c #D48728",
"%. c #C68738",
"&. c #D48D33",
"*. c #DC9131",
"=. c #F99B22",
"-. c #BA874C",
";. c #A58453",
":. c #AC8C5B",
">. c #A78757",
",. c #BB8D52",
"<. c #BB8351",
"1. c #B4915C",
"2. c #BA965E",
"3. c #9B8260",
"4. c #9D8F7C",
"5. c #A68A63",
"6. c #BC9760",
"7. c #BD9D6E",
"8. c #AD9674",
"9. c #BAA077",
"0. c #D59743",
"q. c #CA9C5A",
"w. c #C59A5B",
"e. c #EAAF5E",
"r. c #C29C61",
"t. c #CA9A68",
"y. c #CAA266",
"u. c #CDA66A",
"i. c #D9AE6F",
"p. c #D3A86F",
"a. c #CAA875",
"s. c #D4AD73",
"d. c #DCB374",
"f. c #DFB778",
"g. c #D6B27B",
"h. c #E2AE62",
"j. c #F1B563",
"k. c #E0B776",
"l. c #E4BB7C",
"z. c #EDC47F",
"x. c #F6C672",
"c. c #6E6E82",
"v. c #7F7F80",
"b. c #75758A",
"n. c #828196",
"m. c #A29E9A",
"M. c #B3A389",
"N. c #AFAEAF",
"B. c #A4A2A1",
"V. c #BBB1A1",
"C. c #CFB387",
"Z. c #DFBF8D",
"A. c #E7BF80",
"S. c #E9C283",
"D. c #E2C089",
"F. c #F2CB87",
"G. c #FCD889",
"H. c #F6D99B",
"J. c #D7C5AA",
"K. c #D5C9B7",
"L. c #F3D6A7",
"P. c #F9EAAC",
"I. c #BFBFC0",
"U. c #C8C6C2",
"Y. c #D1D0CE",
"T. c #DCDCDC",
"R. c #E7DAC5",
"E. c #E7E1D7",
"W. c #EFE8DE",
"Q. c #DFE0E0",
"!. c #E6E5E4",
"~. c #E9EAEA",
"^. c None",
/* pixels */
"^.^.^.^.^.^.^.^.^.^.^.^.^.^.^.^.^.^.^.^.^.^.^.^.^.^.^.^.^.^.l g ",
"^.^.^.^.^.^.^.^.^.^.^.^.^.^.^.^.^.^.^.^.^.^.^.^.^.^.^.^.^.^.f u ",
"^.^.^.^.^.^.^.^.^.^.^.^.^.^.^.^.^.^.^.^.^.^.^.^.^.^.^.^.l f ^.^.",
"^.^.^.^.^.^.^.^.^.^.^.^.^.^.^.^.^.^.^.^.^.4.{ a ^.^.^.^.g u ^.^.",
"^.^.^.^.^.^.^.^.^.^.^.^.^.^.^.^.^.^.^.^.3.| ] / e 0 j g ^.^.^.^.",
"^.^.^.^.^.^.^.^.^.^.^.^.^.^.^.^.^.^.^.G ) 2.1.;.( 8 $ % ^.^.^.^.",
"^.^.^.^.^.^.^.^.^.^.^.^.^.^.^.^.^.^.F V S ..y.6.;./ 7 , ^.^.^.^.",
"^.^.^.^.^.^.^.^.^.^.^.^.^.^.^.^.^.^.[ S Z H <.y.1.| e 1 ^.^.^.^.",
"^.^.^.^.^.^.^.^.^.^.^.^.^.^.^.^.5.:.t.<.J D D -.2.;.t < , ^.^.^.",
"^.^.^.^.^.^.^.^.^.^.^.^.^.^.^.^.:.2.u.d.p.J Z D  .| t < 3 ^.^.^.",
"^.^.^.^.^.^.^.^.^.^.^.^.^.^.p :.2.u.i.A.H.t.D C C L r < ^.^.^.^.",
"^.^.^.^.^.^.^.^.^.^.^.^.^.^.+ y u.i.l.A.k.u. .V 5 4 9 < ^.^.^.^.",
"^.^.^.^.^.^.^.^.^.^.^.^.p O   o _ l.S.g.r.2.>.G : * , ^.^.^.^.^.",
"^.^.^.^.^.^.^.^.^.^.^.^.5.r .   X >.d.y.2.>.[ r 1 > ^.^.^.^.^.^.",
"^.^.^.^.^.^.^.^.^.^.N.U.K.s.y .   X _ 2.;.] r 9 ^.^.^.^.^.^.^.^.",
"^.^.^.^.^.^.^.^.^.^.V.T.!.R.D.s .   @ / ] r 7 ^.^.^.^.^.^.^.^.^.",
"^.^.^.^.^.^.^.^.M T a.R.~.~.R.g.8     X 8 7 ^.^.^.^.^.^.^.^.^.^.",
"^.^.^.^.^.^.^.U R ! 0.Z.W.~.!.J.:.1     + ^.^.^.^.^.^.^.^.^.^.^.",
"^.^.^.^.^.^.| U ! o.@.j.L.E.!.Y.M.( #   ^.^.^.^.^.^.^.^.^.^.^.^.",
"^.^.^.^.^.N B ,.&.o.+.#.h.C.U.I.B.d 7 ^.^.^.^.^.^.^.^.^.^.^.^.^.",
"^.^.^.^.%.W Q $.w.*.o.o.X.-.8.m.v.i ^.^.^.^.^.^.^.^.^.^.^.^.^.^.",
"^.^.^.9.q.@.+.o.&.q.$.Q W N P s i ^.^.^.^.^.^.^.^.^.^.^.^.^.^.^.",
"^.^.^.u.i.e.#.+.o.%.,.I m n 6 2 ^.^.^.^.^.^.^.^.^.^.^.^.^.^.^.^.",
"^.^.^.a.d.G.G.#.o.W T [ v 6 & ^.^.^.^.^.^.^.^.^.^.^.^.^.^.^.^.^.",
"^.^.^.^.g.z.P.x.O.W m K w = ^.^.^.^.^.^.^.^.^.^.^.^.^.^.^.^.^.^.",
"^.^.^.^.7.i.l.k.0.E b x = ^.^.^.^.^.^.^.^.^.^.^.^.^.^.^.^.^.^.^.",
"^.^.^.^.z 3.u.y.2.T c ; ^.^.^.^.^.^.^.^.^.^.^.^.^.^.^.^.^.^.^.^.",
"^.^.^.b.k ^.1.1.;.` q - ^.^.^.^.^.^.^.^.^.^.^.^.^.^.^.^.^.^.^.^.",
"^.^.n.c.^.^.^.^.} s ^.^.^.^.^.^.^.^.^.^.^.^.^.^.^.^.^.^.^.^.^.^.",
"^.n.c.^.^.^.^.^.^.^.^.^.^.^.^.^.^.^.^.^.^.^.^.^.^.^.^.^.^.^.^.^.",
"b.c.^.^.^.^.^.^.^.^.^.^.^.^.^.^.^.^.^.^.^.^.^.^.^.^.^.^.^.^.^.^.",
"h ^.^.^.^.^.^.^.^.^.^.^.^.^.^.^.^.^.^.^.^.^.^.^.^.^.^.^.^.^.^.^."
};
