/* XPM */
static char * resistors_xpm[] = {
"48 48 640 2",
"  	c None",
". 	c #6E6D7F",
"+ 	c #59596F",
"@ 	c #656479",
"# 	c #545369",
"$ 	c #4B454F",
"% 	c #636273",
"& 	c #535166",
"* 	c #4A4552",
"= 	c #6B6B7F",
"- 	c #515267",
"; 	c #46404B",
"> 	c #6B6A7F",
", 	c #5C5D73",
"' 	c #413B46",
") 	c #B2AAA1",
"! 	c #9A8C79",
"~ 	c #867560",
"{ 	c #6C5C46",
"] 	c #635647",
"^ 	c #80766F",
"/ 	c #707188",
"( 	c #616179",
"_ 	c #443E49",
": 	c #9C8C76",
"< 	c #8C734A",
"[ 	c #8F7347",
"} 	c #927349",
"| 	c #876E45",
"1 	c #735D3A",
"2 	c #5B482F",
"3 	c #413627",
"4 	c #70635B",
"5 	c #969092",
"6 	c #75728B",
"7 	c #696A85",
"8 	c #453F4B",
"9 	c #92745F",
"0 	c #9B7948",
"a 	c #AB8A56",
"b 	c #AD8B56",
"c 	c #A98755",
"d 	c #A48353",
"e 	c #96784B",
"f 	c #7E663E",
"g 	c #604E30",
"h 	c #3F3220",
"i 	c #242020",
"j 	c #404052",
"k 	c #453F49",
"l 	c #8A6755",
"m 	c #763A1E",
"n 	c #915531",
"o 	c #C39A64",
"p 	c #C09B61",
"q 	c #BC975E",
"r 	c #B4905A",
"s 	c #AA8855",
"t 	c #9A7C4F",
"u 	c #7F6640",
"v 	c #5E4B30",
"w 	c #382D1C",
"x 	c #352B27",
"y 	c #7B4529",
"z 	c #894624",
"A 	c #8E4827",
"B 	c #99562F",
"C 	c #CBA064",
"D 	c #C9A264",
"E 	c #C19C61",
"F 	c #B7925D",
"G 	c #AA8856",
"H 	c #96794D",
"I 	c #79603E",
"J 	c #524129",
"K 	c #3C3021",
"L 	c #865E43",
"M 	c #823F21",
"N 	c #914B27",
"O 	c #974E2B",
"P 	c #994D2A",
"Q 	c #A35F37",
"R 	c #D4AB6D",
"S 	c #CCA468",
"T 	c #C19B62",
"U 	c #B2905B",
"V 	c #A38352",
"W 	c #8E7147",
"X 	c #6C5636",
"Y 	c #433421",
"Z 	c #53443D",
"` 	c #9D8561",
" .	c #AF8E59",
"..	c #9A5E36",
"+.	c #974C2B",
"@.	c #9C502C",
"#.	c #9F522B",
"$.	c #9E4F2E",
"%.	c #A05A33",
"&.	c #D8AF71",
"*.	c #C8A164",
"=.	c #B9965E",
"-.	c #A98956",
";.	c #98794C",
">.	c #7D643F",
",.	c #54442B",
"'.	c #3A2C1E",
").	c #A28B6D",
"!.	c #A88653",
"~.	c #C09962",
"{.	c #CEA569",
"].	c #AC6D40",
"^.	c #9C4D28",
"/.	c #A0532C",
"(.	c #A1532D",
"_.	c #9C4F2C",
":.	c #AA693F",
"<.	c #CFA669",
"[.	c #BE9860",
"}.	c #AE8C59",
"|.	c #9B7C4F",
"1.	c #856B42",
"2.	c #635031",
"3.	c #392E1D",
"4.	c #504239",
"5.	c #99805D",
"6.	c #BC985D",
"7.	c #C8A163",
"8.	c #D1A96A",
"9.	c #D8AF6E",
"0.	c #B26D40",
"a.	c #9D522C",
"b.	c #A0522B",
"c.	c #9E512C",
"d.	c #984C29",
"e.	c #9D5D34",
"f.	c #C29D62",
"g.	c #B18D59",
"h.	c #9C7D4E",
"i.	c #866B43",
"j.	c #6B5536",
"k.	c #40331E",
"l.	c #43362C",
"m.	c #A18B6C",
"n.	c #A98752",
"o.	c #C79F63",
"p.	c #CDA567",
"q.	c #D2AB6C",
"r.	c #E2B778",
"s.	c #F9E1A1",
"t.	c #B37753",
"u.	c #9B4D28",
"v.	c #9B4F2B",
"w.	c #994E2A",
"x.	c #914828",
"y.	c #9B653B",
"z.	c #AF8D59",
"A.	c #9B7C4E",
"B.	c #836942",
"C.	c #685235",
"D.	c #3E311E",
"E.	c #4F3F38",
"F.	c #9B835E",
"G.	c #A98753",
"H.	c #BC985E",
"I.	c #C7A063",
"J.	c #CDA568",
"K.	c #D2AA6B",
"L.	c #D8B072",
"M.	c #E8BF80",
"N.	c #FFE4A3",
"O.	c #F7EFB4",
"P.	c #AF7046",
"Q.	c #974D2B",
"R.	c #954D2A",
"S.	c #8D4928",
"T.	c #854224",
"U.	c #8E5F37",
"V.	c #9B7E50",
"W.	c #7F6740",
"X.	c #5E4D2F",
"Y.	c #382C1A",
"Z.	c #655350",
"`.	c #343131",
" +	c #846940",
".+	c #BF9B60",
"++	c #D2AA6C",
"@+	c #D7AF71",
"#+	c #E3BB7D",
"$+	c #EEC687",
"%+	c #F0C888",
"&+	c #ECC485",
"*+	c #DAAD71",
"=+	c #96522E",
"-+	c #8C4826",
";+	c #874625",
">+	c #7F4224",
",+	c #73381D",
"'+	c #7F5B36",
")+	c #755F3A",
"!+	c #4E3E26",
"~+	c #473A2E",
"{+	c #1A1919",
"]+	c #000000",
"^+	c #060505",
"/+	c #8E7247",
"(+	c #D2A96A",
"_+	c #D1A96C",
":+	c #EBC485",
"<+	c #E9C281",
"[+	c #DAB374",
"}+	c #CEA669",
"|+	c #C9A266",
"1+	c #BB935D",
"2+	c #8B4D2B",
"3+	c #7E4022",
"4+	c #763D21",
"5+	c #6D371F",
"6+	c #5F321B",
"7+	c #634B2F",
"8+	c #463927",
"9+	c #272422",
"0+	c #090807",
"a+	c #B08C5C",
"b+	c #DAB273",
"c+	c #E5BD7F",
"d+	c #EDC587",
"e+	c #E9C282",
"f+	c #D9B172",
"g+	c #CCA467",
"h+	c #C49D63",
"i+	c #BC9760",
"j+	c #B4915C",
"k+	c #A27B4B",
"l+	c #743A1F",
"m+	c #6A361D",
"n+	c #5F301B",
"o+	c #4D2815",
"p+	c #361D10",
"q+	c #574943",
"r+	c #9C825E",
"s+	c #7D653F",
"t+	c #050301",
"u+	c #000101",
"v+	c #100C0A",
"w+	c #B99766",
"x+	c #F5CC8D",
"y+	c #EBC385",
"z+	c #DAB174",
"A+	c #C39C62",
"B+	c #BA945E",
"C+	c #AF8D58",
"D+	c #A48452",
"E+	c #9B7E4F",
"F+	c #805F3C",
"G+	c #582E18",
"H+	c #452213",
"I+	c #432B22",
"J+	c #5B4A46",
"K+	c #A8A5A2",
"L+	c #AF8D5C",
"M+	c #C09A61",
"N+	c #8F7449",
"O+	c #000001",
"P+	c #14100C",
"Q+	c #CEAC74",
"R+	c #DAB274",
"S+	c #C29C62",
"T+	c #BA955E",
"U+	c #AF8D57",
"V+	c #A38252",
"W+	c #94764A",
"X+	c #836A42",
"Y+	c #705C3A",
"Z+	c #48321E",
"`+	c #4A3532",
" @	c #A9A7A8",
".@	c #C4C6C7",
"+@	c #D4D0C9",
"@@	c #CAA671",
"#@	c #D6AC6B",
"$@	c #896E46",
"%@	c #010101",
"&@	c #211912",
"*@	c #B8965F",
"=@	c #C59E62",
"-@	c #B8955F",
";@	c #AE8D58",
">@	c #A18251",
",@	c #93764A",
"'@	c #816741",
")@	c #695435",
"!@	c #4D3E28",
"~@	c #4E3E39",
"{@	c #A9A8A7",
"]@	c #C5C5C5",
"^@	c #D8D8D7",
"/@	c #E2E3E3",
"(@	c #E6DFD6",
"_@	c #D3AD6F",
":@	c #DEB574",
"<@	c #866E4A",
"[@	c #1B1610",
"}@	c #AD8B59",
"|@	c #AD8B57",
"1@	c #A28252",
"2@	c #927549",
"3@	c #806740",
"4@	c #695536",
"5@	c #483826",
"6@	c #957B53",
"7@	c #B6A586",
"8@	c #D8D8D8",
"9@	c #E3E3E3",
"0@	c #E4E4E4",
"a@	c #E8E8EA",
"b@	c #E9E0D1",
"c@	c #EBC68A",
"d@	c #FFDA99",
"e@	c #7A6646",
"f@	c #2F271A",
"g@	c #9F804F",
"h@	c #95774B",
"i@	c #816740",
"j@	c #685435",
"k@	c #493A25",
"l@	c #A66A24",
"m@	c #AB8D59",
"n@	c #BE975D",
"o@	c #D8C7AE",
"p@	c #EBEDF0",
"q@	c #E6E6E6",
"r@	c #E8E8E8",
"s@	c #E7E8E9",
"t@	c #EDE5D9",
"u@	c #EFC88A",
"v@	c #DEB578",
"w@	c #57472B",
"x@	c #261E14",
"y@	c #7E6640",
"z@	c #493A27",
"A@	c #A46013",
"B@	c #C76B00",
"C@	c #D0801C",
"D@	c #C8A266",
"E@	c #CCA461",
"F@	c #E7DAC8",
"G@	c #EFEFEF",
"H@	c #E5E5E5",
"I@	c #E4D6BC",
"J@	c #CDA367",
"K@	c #CEA469",
"L@	c #433522",
"M@	c #000100",
"N@	c #2E2418",
"O@	c #493A26",
"P@	c #B9ADA2",
"Q@	c #A56113",
"R@	c #C46A00",
"S@	c #D97601",
"T@	c #E57C00",
"U@	c #DF912E",
"V@	c #D3AC6E",
"W@	c #DFB878",
"X@	c #F0E9DD",
"Y@	c #EAEBED",
"Z@	c #E7E8E8",
"`@	c #E6E6E8",
" #	c #D1C3AC",
".#	c #B8935C",
"+#	c #AB8C58",
"@#	c #342A1A",
"##	c #090607",
"$#	c #9C8B74",
"%#	c #8B7046",
"&#	c #B6731E",
"*#	c #D37501",
"=#	c #E27B01",
"-#	c #EB8000",
";#	c #F08200",
">#	c #E9A245",
",#	c #F2CB8D",
"'#	c #FCD597",
")#	c #EDE7DE",
"!#	c #ECEBEB",
"~#	c #E2E2E2",
"{#	c #DCDCDB",
"]#	c #D3D3D4",
"^#	c #B8A88B",
"/#	c #A27F4E",
"(#	c #977A4D",
"_#	c #1D160E",
":#	c #040303",
"<#	c #A97538",
"[#	c #9C641B",
"}#	c #A48656",
"|#	c #B48F56",
"1#	c #D47D14",
"2#	c #E67D00",
"3#	c #EE8200",
"4#	c #F48400",
"5#	c #F48100",
"6#	c #F9B75D",
"7#	c #F5D191",
"8#	c #E1BB82",
"9#	c #E0DBD2",
"0#	c #DCDDDE",
"a#	c #D1D1D1",
"b#	c #C6C6C6",
"c#	c #B9BABD",
"d#	c #9B8D77",
"e#	c #81653F",
"f#	c #645233",
"g#	c #18130F",
"h#	c #B27225",
"i#	c #C06802",
"j#	c #C76C00",
"k#	c #C08133",
"l#	c #B99863",
"m#	c #C69B5E",
"n#	c #E3810D",
"o#	c #ED8200",
"p#	c #F18400",
"q#	c #F38400",
"r#	c #EF8203",
"s#	c #E1A95A",
"t#	c #CCA76A",
"u#	c #C39D64",
"v#	c #D0CDC7",
"w#	c #C6C7C7",
"x#	c #B7B7B7",
"y#	c #A5A5A6",
"z#	c #91908F",
"A#	c #6C604F",
"B#	c #453726",
"C#	c #B9905D",
"D#	c #CA6B00",
"E#	c #D87601",
"F#	c #DB7702",
"G#	c #DB7602",
"H#	c #C79045",
"I#	c #C69F63",
"J#	c #D09C53",
"K#	c #E98209",
"L#	c #EC8200",
"M#	c #ED8101",
"N#	c #E98000",
"O#	c #E47C00",
"P#	c #CA9249",
"Q#	c #B7945E",
"R#	c #B19163",
"S#	c #B5B1AE",
"T#	c #A6A6A7",
"U#	c #909090",
"V#	c #737374",
"W#	c #514E4D",
"X#	c #B8AA92",
"Y#	c #B68E54",
"Z#	c #DE8011",
"`#	c #E78002",
" $	c #EA7F00",
".$	c #E67E02",
"+$	c #E17C06",
"@$	c #CA9756",
"#$	c #C8A467",
"$$	c #D29E57",
"%$	c #E67E00",
"&$	c #E37C00",
"*$	c #DC7800",
"=$	c #CF7305",
"-$	c #B28546",
";$	c #A08152",
">$	c #947A54",
",$	c #908E8D",
"'$	c #747475",
")$	c #4E4C4B",
"!$	c #B99B6B",
"~$	c #DB9F4F",
"{$	c #F68705",
"]$	c #F58601",
"^$	c #F08300",
"/$	c #EB8003",
"($	c #E37D04",
"_$	c #C89A57",
":$	c #C5A066",
"<$	c #CC9247",
"[$	c #DA7805",
"}$	c #D77501",
"|$	c #D07100",
"1$	c #C66B00",
"2$	c #B76300",
"3$	c #94713C",
"4$	c #7E6641",
"5$	c #665539",
"6$	c #4D4A48",
"7$	c #C6A46E",
"8$	c #D7AB6C",
"9$	c #DCB272",
"0$	c #EAA851",
"a$	c #FC8900",
"b$	c #F88901",
"c$	c #F18401",
"d$	c #EA7E02",
"e$	c #DC7D0F",
"f$	c #BE965B",
"g$	c #B99761",
"h$	c #BE8740",
"i$	c #C96D01",
"j$	c #C16A01",
"k$	c #B56301",
"l$	c #A45A00",
"m$	c #8D4F05",
"n$	c #6A4C25",
"o$	c #443727",
"p$	c #E0B16F",
"q$	c #E4B875",
"r$	c #F2C582",
"s$	c #FCBD5B",
"t$	c #FD8C03",
"u$	c #F78701",
"v$	c #EC8100",
"w$	c #E07B00",
"x$	c #D0750C",
"y$	c #B28D55",
"z$	c #AA8A55",
"A$	c #AA7838",
"B$	c #AE6003",
"C$	c #9F5801",
"D$	c #8D4D00",
"E$	c #713D02",
"F$	c #4B2C0A",
"G$	c #C8A574",
"H$	c #DEB371",
"I$	c #E8BB74",
"J$	c #FAD58F",
"K$	c #FBFFCE",
"L$	c #FBCC73",
"M$	c #F88905",
"N$	c #ED8300",
"O$	c #D27301",
"P$	c #BD6F13",
"Q$	c #A07E4C",
"R$	c #94784C",
"S$	c #90632B",
"T$	c #864902",
"U$	c #6E3B00",
"V$	c #4D2D0C",
"W$	c #CBBBA4",
"X$	c #D6AA68",
"Y$	c #E5BA74",
"Z$	c #F5C883",
"`$	c #FDF9BE",
" %	c #FAFDC5",
".%	c #F9B550",
"+%	c #F08201",
"@%	c #E17B00",
"#%	c #D17301",
"$%	c #A7600B",
"%%	c #856A45",
"&%	c #745E3B",
"*%	c #5E4421",
"=%	c #46290C",
"-%	c #C09F70",
";%	c #DCB26F",
">%	c #E6B975",
",%	c #F2CC86",
"'%	c #F8D996",
")%	c #EDC786",
"!%	c #E48D21",
"~%	c #DF7800",
"{%	c #CB7000",
"]%	c #BA6500",
"^%	c #A35901",
"/%	c #864F0E",
"(%	c #604B2B",
"_%	c #423521",
":%	c #C7A368",
"<%	c #DDB070",
"[%	c #E1B471",
"}%	c #DFB370",
"|%	c #D5AD6D",
"1%	c #CBA265",
"2%	c #D08121",
"3%	c #C76C01",
"4%	c #B26200",
"5%	c #9B5400",
"6%	c #7B4402",
"7%	c #502E04",
"8%	c #3B2B1E",
"9%	c #6F6D7E",
"0%	c #857771",
"a%	c #C59F61",
"b%	c #D4AB6B",
"c%	c #D4AC6C",
"d%	c #CFA567",
"e%	c #B5925A",
"f%	c #B66E18",
"g%	c #A75A00",
"h%	c #8D4D01",
"i%	c #673800",
"j%	c #482C13",
"k%	c #646377",
"l%	c #7B7A93",
"m%	c #4B4A5E",
"n%	c #75604E",
"o%	c #B7945D",
"p%	c #C59F62",
"q%	c #C49E61",
"r%	c #A88856",
"s%	c #98774A",
"t%	c #8C5B1E",
"u%	c #703D00",
"v%	c #523519",
"w%	c #757485",
"x%	c #8787A1",
"y%	c #525366",
"z%	c #A4875D",
"A%	c #AE8B59",
"B%	c #A88654",
"C%	c #97794B",
"D%	c #625035",
"E%	c #58412E",
"F%	c #77778C",
"G%	c #9596A8",
"H%	c #59586B",
"I%	c #8D7556",
"J%	c #7C6647",
"K%	c #73614F",
"L%	c #838193",
"M%	c #9697AA",
"N%	c #595A71",
"O%	c #828095",
"P%	c #8F8FA8",
"Q%	c #5C5B6E",
"R%	c #8B899A",
"S%	c #7E7D9B",
"T%	c #58566C",
"U%	c #717189",
"V%	c #565366",
"W%	c #525164",
"                                                                                            . + ",
"                                                                                          @ # $ ",
"                                                                                        % & *   ",
"                                                                                      = - ;     ",
"                                                                                    > , '       ",
"                                                              ) ! ~ { ] ^         / ( _         ",
"                                                            : < [ } | 1 2 3 4 5 6 7 8           ",
"                                                          9 0 a b c d e f g h i j k             ",
"                                                        l m n o p q r s t u v w x               ",
"                                                        y z A B C D E F G H I J K               ",
"                                                      L M N O P Q R S T U V W X Y Z             ",
"                                                    `  ...+.@.#.$.%.&.*.=.-.;.>.,.'.            ",
"                                                  ).!.~.{.].^./.(._.:.<.[.}.|.1.2.3.4.          ",
"                                                5.s 6.7.8.9.0.a.b.c.d.e.f.g.h.i.j.k.l.          ",
"                                              m.n.q o.p.q.r.s.t.u.v.w.x.y.z.A.B.C.D.E.          ",
"                                            F.G.H.I.J.K.L.M.N.O.P.Q.R.S.T.U.V.W.X.Y.Z.          ",
"                                          `. +.+I.J.++@+#+$+%+&+*+=+-+;+>+,+'+)+!+~+            ",
"                                        {+]+^+/+(+_+L.#+:+<+[+}+|+1+2+3+4+5+6+7+8+              ",
"                                      9+]+]+]+0+a+b+c+d+e+f+g+h+i+j+k+l+m+n+o+p+q+              ",
"                                    r+s+t+u+]+]+v+w+x+y+z+g+A+B+C+D+E+F+G+H+I+J+                ",
"                                  K+L+M+N+]+O+]+O+P+Q+R+J.S+T+U+V+W+X+Y+Z+`+                    ",
"                                 @.@+@@@#@$@%@]+]+]+&@*@=@-@;@>@,@'@)@!@~@                      ",
"                              {@]@^@/@(@_@:@<@]+]+]+]+[@}@|@1@2@3@4@5@                          ",
"                            6@7@8@9@0@a@b@c@d@e@]+]+]+]+f@g@h@i@j@k@                            ",
"                          l@m@n@o@p@q@r@s@t@u@v@w@]+]+]+]+x@y@j@z@                              ",
"                        A@B@C@D@E@F@G@G@H@s@I@J@K@L@]+]+]+M@N@O@                                ",
"                    P@Q@R@S@T@U@V@W@X@Y@Z@r@`@ #.#+#@#]+]+]+##                                  ",
"                  $#%#&#*#=#-#;#>#,#'#)#!#~#{#]#^#/#(#_#]+:#                                    ",
"                <#[#}#|#1#2#3#4#5#6#7#8#9#0#a#b#c#d#e#f#g#                                      ",
"              h#i#j#k#l#m#n#o#p#q#r#s#t#u#v#w#x#y#z#A#B#                                        ",
"            C#D#E#F#G#H#I#J#K#L#M#N#O#P#Q#R#S#T#U#V#W#                                          ",
"          X#Y#Z#`# $.$+$@$#$$$.$%$&$*$=$-$;$>$,$'$)$                                            ",
"          !$D@~${$]$^$/$($_$:$<$[$}$|$1$2$3$4$5$6$                                              ",
"          7$8$9$0$a$b$c$d$e$f$g$h$i$j$k$l$m$n$o$                                                ",
"          Q+p$q$r$s$t$u$v$w$x$y$z$A$B$C$D$E$F$                                                  ",
"          G$H$I$J$K$L$M$N$w$O$P$Q$R$S$T$U$V$                                                    ",
"          W$X$Y$Z$`$ %.%+%@%#%i#$%%%&%*%=%                                                      ",
"            -%;%>%,%'%)%!%~%{%]%^%/%(%_%                                                        ",
"              :%<%[%}%|%1%2%3%4%5%6%7%8%                                                        ",
"            9%0%a%b%c%d%f.e%f%g%h%i%j%                                                          ",
"          k%l%m%n%o%p%q%T+r%s%t%u%v%                                                            ",
"        w%x%y%      z%A%B%C%W.D%E%                                                              ",
"      F%G%H%            I%J%K%                                                                  ",
"    L%M%N%                                                                                      ",
"  O%P%Q%                                                                                        ",
"R%S%T%                                                                                          ",
"U%V%                                                                                            ",
"W%                                                                                              "};
